# xmcd
#
# Track frame offsets: 
#        150
#        10420
#        25271
#        44161
#        62988
#        84105
#        103033
#        132044
#
# Disc length: 2694 seconds
#
# Revision: 0
# Processed by: cddbd v1.5.2PL0 Copyright (c) Steve Scherf et al.
# Submitted via: ExactAudioCopy v0.95b4
#
DISCID=640a8408
DTITLE=Jandek - The Beginning
DYEAR=1999
DGENRE=Lo-Fi
TTITLE0=It's February
TTITLE1=You Standing there
TTITLE2=I Never Left You Anyway
TTITLE3=Moving Slow
TTITLE4=Falling Down Deep
TTITLE5=Lonesome Bridge
TTITLE6=A Dozen Drops
TTITLE7=The Beginning
EXTD=
EXTT0=
EXTT1=
EXTT2=
EXTT3=
EXTT4=
EXTT5=
EXTT6=
EXTT7=
PLAYORDER=
